<svg width="24" height="24" viewBox="0 0 24 24" fill="none" xmlns="http://www.w3.org/2000/svg">
<path d="M15.9201 22.75H11.4901C10.2193 22.7877 8.98518 22.3209 8.05761 21.4514C7.13004 20.5819 6.58444 19.3806 6.54006 18.11C6.54006 17.9084 6.62014 17.7151 6.76266 17.5726C6.90519 17.43 7.0985 17.35 7.30006 17.35C7.50163 17.35 7.69494 17.43 7.83747 17.5726C7.97999 17.7151 8.06006 17.9084 8.06006 18.11C8.10411 18.9775 8.48946 19.7924 9.13203 20.3769C9.7746 20.9614 10.6223 21.268 11.4901 21.23H15.9201C16.7879 21.268 17.6355 20.9614 18.2781 20.3769C18.9207 19.7924 19.306 18.9775 19.3501 18.11V5.88996C19.306 5.02244 18.9207 4.20754 18.2781 3.62304C17.6355 3.03854 16.7879 2.73188 15.9201 2.76996H11.4901C10.6223 2.73188 9.7746 3.03854 9.13203 3.62304C8.48946 4.20754 8.10411 5.02244 8.06006 5.88996C8.06006 6.09153 7.97999 6.28484 7.83747 6.42736C7.69494 6.56989 7.50163 6.64996 7.30006 6.64996C7.0985 6.64996 6.90519 6.56989 6.76266 6.42736C6.62014 6.28484 6.54006 6.09153 6.54006 5.88996C6.56196 5.25643 6.70886 4.63348 6.97234 4.05691C7.23581 3.48035 7.61065 2.96155 8.07531 2.53035C8.53996 2.09915 9.08527 1.76405 9.67988 1.54431C10.2745 1.32458 10.9067 1.22454 11.5401 1.24996H15.9701C16.6035 1.22454 17.2356 1.32458 17.8302 1.54431C18.4249 1.76405 18.9702 2.09915 19.4348 2.53035C19.8995 2.96155 20.2743 3.48035 20.5378 4.05691C20.8013 4.63348 20.9482 5.25643 20.9701 5.88996V18.11C20.9483 18.7479 20.7998 19.3751 20.5332 19.9551C20.2666 20.5351 19.8872 21.0562 19.4172 21.488C18.9472 21.9199 18.3959 22.2539 17.7955 22.4705C17.1951 22.6872 16.5576 22.7822 15.9201 22.75ZM14.1701 11.24H4.11006L5.78006 9.56996C5.91941 9.42472 5.99721 9.23124 5.99721 9.02996C5.99721 8.82869 5.91941 8.6352 5.78006 8.48996C5.7094 8.41861 5.62529 8.36197 5.5326 8.32331C5.43992 8.28465 5.34049 8.26475 5.24006 8.26475C5.13964 8.26475 5.04021 8.28465 4.94752 8.32331C4.85484 8.36197 4.77073 8.41861 4.70006 8.48996L1.70006 11.49C1.62871 11.5606 1.57207 11.6447 1.53341 11.7374C1.49476 11.8301 1.47485 11.9295 1.47485 12.03C1.47485 12.1304 1.49476 12.2298 1.53341 12.3225C1.57207 12.4152 1.62871 12.4993 1.70006 12.57L4.70006 15.57C4.77083 15.6408 4.85506 15.6968 4.94781 15.7346C5.04055 15.7724 5.13993 15.7912 5.24006 15.79C5.34012 15.7906 5.43933 15.7716 5.532 15.7338C5.62467 15.6961 5.70897 15.6404 5.78006 15.57C5.91941 15.4247 5.99721 15.2312 5.99721 15.03C5.99721 14.8287 5.91941 14.6352 5.78006 14.49L4.11006 12.76H14.1701C14.3716 12.76 14.5649 12.6799 14.7075 12.5374C14.85 12.3948 14.9301 12.2015 14.9301 12C14.9301 11.7984 14.85 11.6051 14.7075 11.4626C14.5649 11.32 14.3716 11.24 14.1701 11.24Z" fill="#5E6278"/>
</svg>
