<svg width="24" height="24" viewBox="0 0 24 24" fill="none" xmlns="http://www.w3.org/2000/svg">
<path d="M15.9198 22.75H11.4898C10.219 22.7877 8.98494 22.3209 8.05737 21.4514C7.1298 20.5819 6.58419 19.3806 6.53982 18.11C6.53982 17.9084 6.61989 17.7151 6.76242 17.5726C6.90495 17.43 7.09826 17.35 7.29982 17.35C7.50138 17.35 7.69469 17.43 7.83722 17.5726C7.97975 17.7151 8.05982 17.9084 8.05982 18.11C8.10387 18.9775 8.48921 19.7924 9.13179 20.3769C9.77436 20.9614 10.622 21.268 11.4898 21.23H15.9198C16.7876 21.268 17.6353 20.9614 18.2779 20.3769C18.9204 19.7924 19.3058 18.9775 19.3498 18.11V5.88996C19.3058 5.02244 18.9204 4.20754 18.2779 3.62304C17.6353 3.03854 16.7876 2.73188 15.9198 2.76996H11.4898C10.622 2.73188 9.77436 3.03854 9.13179 3.62304C8.48921 4.20754 8.10387 5.02244 8.05982 5.88996C8.05982 6.09153 7.97975 6.28484 7.83722 6.42736C7.69469 6.56989 7.50138 6.64996 7.29982 6.64996C7.09826 6.64996 6.90495 6.56989 6.76242 6.42736C6.61989 6.28484 6.53982 6.09153 6.53982 5.88996C6.56171 5.25643 6.70862 4.63348 6.97209 4.05691C7.23556 3.48035 7.6104 2.96155 8.07506 2.53035C8.53972 2.09915 9.08503 1.76405 9.67964 1.54431C10.2742 1.32458 10.9064 1.22454 11.5398 1.24996H15.9698C16.6032 1.22454 17.2354 1.32458 17.83 1.54431C18.4246 1.76405 18.9699 2.09915 19.4346 2.53035C19.8992 2.96155 20.2741 3.48035 20.5375 4.05691C20.801 4.63348 20.9479 5.25643 20.9698 5.88996V18.11C20.9481 18.7479 20.7996 19.3751 20.533 19.9551C20.2664 20.5351 19.887 21.0562 19.417 21.488C18.9469 21.9199 18.3957 22.2539 17.7953 22.4705C17.1948 22.6872 16.5573 22.7822 15.9198 22.75V22.75ZM14.1698 11.24H4.10982L5.77982 9.56996C5.91916 9.42472 5.99697 9.23124 5.99697 9.02996C5.99697 8.82869 5.91916 8.6352 5.77982 8.48996C5.70915 8.41861 5.62505 8.36197 5.53236 8.32331C5.43967 8.28465 5.34024 8.26475 5.23982 8.26475C5.13939 8.26475 5.03997 8.28465 4.94728 8.32331C4.85459 8.36197 4.77049 8.41861 4.69982 8.48996L1.69982 11.49C1.62847 11.5606 1.57182 11.6447 1.53317 11.7374C1.49451 11.8301 1.47461 11.9295 1.47461 12.03C1.47461 12.1304 1.49451 12.2298 1.53317 12.3225C1.57182 12.4152 1.62847 12.4993 1.69982 12.57L4.69982 15.57C4.77058 15.6408 4.85482 15.6968 4.94756 15.7346C5.04031 15.7724 5.13968 15.7912 5.23982 15.79C5.33988 15.7906 5.43909 15.7716 5.53176 15.7338C5.62443 15.6961 5.70873 15.6404 5.77982 15.57C5.91916 15.4247 5.99697 15.2312 5.99697 15.03C5.99697 14.8287 5.91916 14.6352 5.77982 14.49L4.10982 12.76H14.1698C14.3714 12.76 14.5647 12.6799 14.7072 12.5374C14.8497 12.3948 14.9298 12.2015 14.9298 12C14.9298 11.7984 14.8497 11.6051 14.7072 11.4626C14.5647 11.32 14.3714 11.24 14.1698 11.24V11.24Z" fill="#FE2F60"/>
</svg>
