<svg width="24" height="25" viewBox="0 0 24 25" fill="none" xmlns="http://www.w3.org/2000/svg">
<path d="M12.0001 22.8104C11.5514 22.8118 11.1067 22.7269 10.6901 22.5604L2.48008 19.2704C2.11856 19.1255 1.80872 18.8756 1.59048 18.553C1.37225 18.2304 1.25562 17.8499 1.25562 17.4604C1.25562 17.0709 1.37225 16.6903 1.59048 16.3678C1.80872 16.0452 2.11856 15.7953 2.48008 15.6504C2.57303 15.6099 2.67322 15.5887 2.77459 15.5881C2.87597 15.5874 2.97642 15.6073 3.06989 15.6466C3.16336 15.6858 3.2479 15.7436 3.3184 15.8165C3.3889 15.8893 3.4439 15.9757 3.48008 16.0704C3.51921 16.1665 3.53769 16.2697 3.53433 16.3734C3.53097 16.4771 3.50584 16.5789 3.46058 16.6723C3.41532 16.7657 3.35093 16.8484 3.2716 16.9153C3.19226 16.9822 3.09976 17.0316 3.00008 17.0604C2.91677 17.0944 2.84556 17.1526 2.79565 17.2274C2.74573 17.3023 2.71941 17.3904 2.72008 17.4804C2.71801 17.5707 2.74377 17.6594 2.79386 17.7345C2.84395 17.8097 2.91595 17.8676 3.00008 17.9004L11.2201 21.1804C11.7011 21.375 12.239 21.375 12.7201 21.1804L21.0001 17.8804C21.0842 17.8476 21.1562 17.7897 21.2063 17.7145C21.2564 17.6394 21.2821 17.5507 21.2801 17.4604C21.2769 17.3738 21.2487 17.2901 21.199 17.2191C21.1494 17.1482 21.0803 17.093 21.0001 17.0604C20.9045 17.0254 20.8171 16.9711 20.7435 16.9008C20.6698 16.8305 20.6114 16.7458 20.572 16.652C20.5326 16.5581 20.513 16.4571 20.5144 16.3553C20.5157 16.2536 20.5381 16.1531 20.5801 16.0604C20.6163 15.9657 20.6713 15.8793 20.7418 15.8065C20.8123 15.7336 20.8968 15.6758 20.9903 15.6366C21.0837 15.5973 21.1842 15.5774 21.2856 15.5781C21.3869 15.5787 21.4871 15.5999 21.5801 15.6404C21.9416 15.7853 22.2514 16.0352 22.4697 16.3578C22.6879 16.6803 22.8045 17.0609 22.8045 17.4504C22.8045 17.8399 22.6879 18.2204 22.4697 18.543C22.2514 18.8656 21.9416 19.1155 21.5801 19.2604L13.3101 22.5604C12.8935 22.7269 12.4487 22.8118 12.0001 22.8104ZM12.0001 17.4104C11.5508 17.4081 11.1062 17.3199 10.6901 17.1504L2.48008 13.8704C2.11856 13.7255 1.80872 13.4756 1.59048 13.153C1.37225 12.8304 1.25562 12.4499 1.25562 12.0604C1.25562 11.6709 1.37225 11.2903 1.59048 10.9678C1.80872 10.6452 2.11856 10.3953 2.48008 10.2504L3.48008 9.86039C3.57241 9.81966 3.672 9.79798 3.7729 9.79665C3.87381 9.79532 3.97394 9.81437 4.06731 9.85265C4.16067 9.89093 4.24535 9.94766 4.31628 10.0194C4.38721 10.0912 4.44292 10.1766 4.48008 10.2704C4.51912 10.3635 4.53921 10.4635 4.53917 10.5645C4.53914 10.6654 4.51898 10.7654 4.47988 10.8585C4.44078 10.9516 4.38352 11.036 4.31144 11.1067C4.23936 11.1774 4.15391 11.2331 4.06008 11.2704L3.06008 11.6604C2.97595 11.6932 2.90395 11.7511 2.85386 11.8262C2.80377 11.9014 2.77801 11.9901 2.78008 12.0804C2.77941 12.1704 2.80573 12.2585 2.85565 12.3333C2.90556 12.4082 2.97677 12.4664 3.06008 12.5004L11.2801 15.7804C11.7611 15.975 12.299 15.975 12.7801 15.7804L21.0001 12.4804C21.0834 12.4464 21.1546 12.3882 21.2045 12.3133C21.2544 12.2385 21.2807 12.1504 21.2801 12.0604C21.2821 11.9701 21.2564 11.8814 21.2063 11.8062C21.1562 11.7311 21.0842 11.6732 21.0001 11.6404L20.0001 11.2504C19.9082 11.2143 19.8242 11.1604 19.7531 11.0919C19.682 11.0233 19.6251 10.9414 19.5857 10.8509C19.5462 10.7604 19.5249 10.6629 19.5231 10.5642C19.5213 10.4655 19.539 10.3673 19.5751 10.2754C19.6112 10.1835 19.6651 10.0996 19.7336 10.0284C19.8021 9.95734 19.884 9.90042 19.9746 9.86096C20.0651 9.8215 20.1625 9.80025 20.2613 9.79844C20.36 9.79662 20.4582 9.81428 20.5501 9.85039L21.5501 10.2504C21.9116 10.3953 22.2214 10.6452 22.4397 10.9678C22.6579 11.2903 22.7745 11.6709 22.7745 12.0604C22.7745 12.4499 22.6579 12.8304 22.4397 13.153C22.2214 13.4756 21.9116 13.7255 21.5501 13.8704L13.3401 17.1504C12.9147 17.3237 12.4594 17.412 12.0001 17.4104ZM12.0001 12.0604C11.5508 12.0581 11.1062 11.9699 10.6901 11.8004L2.48008 8.47039C2.11856 8.32548 1.80872 8.07562 1.59048 7.75303C1.37225 7.43043 1.25562 7.04987 1.25562 6.66039C1.25562 6.27091 1.37225 5.89035 1.59048 5.56775C1.80872 5.24516 2.11856 4.9953 2.48008 4.85039L10.6901 1.56039C11.5313 1.22531 12.4689 1.22531 13.3101 1.56039L21.5201 4.85039C21.8816 4.9953 22.1914 5.24516 22.4097 5.56775C22.6279 5.89035 22.7445 6.27091 22.7445 6.66039C22.7445 7.04987 22.6279 7.43043 22.4097 7.75303C22.1914 8.07562 21.8816 8.32548 21.5201 8.47039L13.3101 11.7504C12.8974 11.937 12.4526 12.0423 12.0001 12.0604ZM11.2501 10.4104C11.7311 10.605 12.269 10.605 12.7501 10.4104L21.0001 7.06039C21.0834 7.0264 21.1546 6.96821 21.2045 6.89335C21.2544 6.81848 21.2807 6.73037 21.2801 6.64039C21.2781 6.55352 21.2505 6.46917 21.2007 6.39799C21.1508 6.3268 21.081 6.27196 21.0001 6.24039L12.7501 2.95039C12.269 2.75579 11.7311 2.75579 11.2501 2.95039L3.00008 6.24039C2.91595 6.2732 2.84395 6.33111 2.79386 6.40624C2.74377 6.48138 2.71801 6.57011 2.72008 6.66039C2.72331 6.74694 2.75145 6.83071 2.80111 6.90167C2.85078 6.97262 2.91987 7.02773 3.00008 7.06039L11.2501 10.4104Z" fill="#5E6278"/>
</svg>
