<svg width="22" height="22" viewBox="0 0 22 22" fill="none" xmlns="http://www.w3.org/2000/svg">
<path d="M14.87 21.53H6.65C4.90299 21.5433 3.22196 20.8635 1.97541 19.6394C0.728854 18.4153 0.0184786 16.747 0 15V7.34C0.00523312 6.47242 0.181468 5.61439 0.518622 4.81499C0.855776 4.01559 1.34723 3.2905 1.96488 2.68122C2.58252 2.07193 3.31424 1.5904 4.11816 1.26417C4.92208 0.937939 5.78243 0.773412 6.65 0.78H10.19C10.2885 0.78 10.386 0.799399 10.477 0.83709C10.568 0.874781 10.6507 0.930026 10.7203 0.99967C10.79 1.06931 10.8452 1.15199 10.8829 1.24299C10.9206 1.33398 10.94 1.43151 10.94 1.53C10.94 1.62849 10.9206 1.72602 10.8829 1.81701C10.8452 1.90801 10.79 1.99069 10.7203 2.06033C10.6507 2.12997 10.568 2.18522 10.477 2.22291C10.386 2.2606 10.2885 2.28 10.19 2.28H6.65C5.31031 2.27189 4.02145 2.79229 3.06296 3.72831C2.10448 4.66433 1.55366 5.9405 1.53 7.28V14.94C1.55366 16.2795 2.10448 17.5557 3.06296 18.4917C4.02145 19.4277 5.31031 19.9481 6.65 19.94H14.87C16.2097 19.9481 17.4986 19.4277 18.457 18.4917C19.4155 17.5557 19.9663 16.2795 19.99 14.94V9.92C20.0115 9.73218 20.1014 9.55884 20.2424 9.43299C20.3835 9.30715 20.566 9.23761 20.755 9.23761C20.944 9.23761 21.1265 9.30715 21.2676 9.43299C21.4086 9.55884 21.4985 9.73218 21.52 9.92V15C21.5015 16.747 20.7911 18.4153 19.5446 19.6394C18.298 20.8635 16.617 21.5433 14.87 21.53ZM16.44 1.53C16.2945 1.52722 16.1505 1.55936 16.02 1.62374C15.8895 1.68812 15.7763 1.78285 15.69 1.9L15.1 2.66C15.2988 3.46819 15.7815 4.17801 16.46 4.66C17.0878 5.13537 17.8525 5.39496 18.64 5.4H18.76L19.35 4.64C19.4236 4.54427 19.4775 4.43484 19.5084 4.3181C19.5393 4.20135 19.5466 4.07962 19.53 3.96C19.5154 3.84034 19.4758 3.7251 19.4138 3.62173C19.3518 3.51837 19.2687 3.42919 19.17 3.36L17 1.72C16.8397 1.59609 16.6426 1.52922 16.44 1.53ZM16.44 0.03C16.9732 0.0299927 17.4922 0.201819 17.92 0.52L20.11 2.14C20.3675 2.32844 20.5847 2.56654 20.7488 2.84026C20.9128 3.11399 21.0204 3.41779 21.0651 3.73375C21.1098 4.04971 21.0908 4.37143 21.0092 4.67993C20.9276 4.98843 20.7851 5.27747 20.59 5.53L19.93 6.39C19.833 6.51823 19.7114 6.62584 19.5723 6.70654C19.4332 6.78724 19.2795 6.83941 19.12 6.86H18.64C17.5235 6.86519 16.4343 6.51496 15.53 5.86C14.4962 5.11587 13.7819 4.00858 13.53 2.76C13.5062 2.60155 13.5153 2.4399 13.5566 2.28509C13.5979 2.13027 13.6705 1.98559 13.77 1.86L14.43 1C14.6629 0.68951 14.9648 0.437501 15.312 0.263932C15.6591 0.0903627 16.0419 0 16.43 0L16.44 0.03ZM11.88 6.83L9.64 9.78C9.54184 9.90241 9.48573 10.0532 9.48 10.21V13.37C9.47519 13.4089 9.47996 13.4483 9.4939 13.4849C9.50785 13.5215 9.53054 13.5542 9.56 13.58C9.62112 13.6414 9.70339 13.6772 9.79 13.68H9.88L12.94 12.78C13.0909 12.7303 13.2234 12.6362 13.32 12.51L15.56 9.61C14.8483 9.32344 14.1762 8.94705 13.56 8.49C12.9409 8.02899 12.3861 7.48756 11.91 6.88M11.96 4.72C12.0735 4.71733 12.1854 4.74692 12.2828 4.80534C12.3802 4.86375 12.4589 4.94859 12.51 5.05C13.0118 5.92894 13.6933 6.6922 14.51 7.29C15.3227 7.89697 16.2576 8.32007 17.25 8.53C17.3575 8.54658 17.4586 8.59159 17.5428 8.66037C17.627 8.72915 17.6913 8.8192 17.7291 8.92119C17.7668 9.02318 17.7766 9.1334 17.7574 9.24045C17.7382 9.34749 17.6908 9.44746 17.62 9.53L14.62 13.45C14.3263 13.8336 13.9156 14.111 13.45 14.24L10.36 15.14C10.1913 15.1909 10.0162 15.2178 9.84 15.22C9.5981 15.224 9.35785 15.1795 9.13345 15.0891C8.90905 14.9987 8.70505 14.8642 8.53352 14.6936C8.36198 14.523 8.22639 14.3197 8.13475 14.0958C8.04311 13.8719 7.99729 13.6319 8 13.39V10.23C8.00788 9.7504 8.17301 9.28666 8.47 8.91L11.47 4.99C11.5305 4.91559 11.6067 4.85549 11.6931 4.814C11.7796 4.7725 11.8741 4.75065 11.97 4.75L11.96 4.72Z" fill="#5E6278"/>
</svg>
